<svg xmlns="http://www.w3.org/2000/svg" version="1.1" xmlns:xlink="http://www.w3.org/1999/xlink" xmlns:svgjs="http://svgjs.dev/svgjs" width="2000" height="565" viewBox="0 0 2000 565"><g transform="matrix(1,0,0,1,-1.2403626152521383,1.82992185139733)"><svg viewBox="0 0 396 112" data-background-color="#f8f8f8" preserveAspectRatio="xMidYMid meet" height="565" width="2000" xmlns="http://www.w3.org/2000/svg" xmlns:xlink="http://www.w3.org/1999/xlink"><g id="tight-bounds" transform="matrix(1,0,0,1,0.24559179781991247,0.09447796654265517)"><svg viewBox="0 0 395.5199999999999 111.81016463442411" height="111.81016463442411" width="395.5199999999999"><g><svg viewBox="0 0 571.9295418107544 161.6796526829268" height="111.81016463442411" width="395.5199999999999"><g transform="matrix(1,0,0,1,176.40954181075438,49.961359442508694)"><svg viewBox="0 0 395.52 61.7569337979094" height="61.7569337979094" width="395.52"><g id="textblocktransform"><svg viewBox="0 0 395.52 61.7569337979094" height="61.7569337979094" width="395.52" id="textblock"><g><svg viewBox="0 0 395.52 61.7569337979094" height="61.7569337979094" width="395.52"><g transform="matrix(1,0,0,1,0,0)"><svg width="395.52" viewBox="4.45 -35.3 229.58 35.849999999999994" height="61.7569337979094" data-palette-color="#ffffff"><path d="M37.75-5.7Q37.75-2.1 38.35-0.35L38.35-0.35Q37.3 0.55 36 0.55L36 0.55Q35.05 0.55 34.45-0.05 33.85-0.65 33.85-1.65L33.85-1.65 33.75-29.8 22.8-5.45Q21.6-5 20.6-5L20.6-5Q19.7-5 19-5.35L19-5.35Q13.35-16.05 7.2-29.65L7.2-29.65 7.25-5.7Q7.25-1.95 7.9-0.05L7.9-0.05Q7.2 0.55 6.25 0.55L6.25 0.55Q4.8 0.55 4.8-1.3L4.8-1.3 4.75-28.95Q4.75-32.5 4.45-34.5L4.45-34.5Q5.05-35.1 7.1-35.1L7.1-35.1Q8.45-35.1 9.2-34.3L9.2-34.3 13.35-25.55 21.4-8.85Q22.4-11.05 28.35-24.6L28.35-24.6Q29.85-28.15 30.95-30.65 32.05-33.15 32.75-34.7L32.75-34.7Q33.8-35.1 35.2-35.1L35.2-35.1Q36.15-35.1 36.88-34.75 37.6-34.4 37.65-33.9L37.65-33.9 37.75-5.7ZM49.65 0.55Q48.65 0.55 48-0.05 47.35-0.65 47.35-1.65L47.35-1.65 47.3-28.85Q47.3-32.3 46.65-34.2L46.65-34.2Q47.7-35.1 49-35.1L49-35.1Q50.05-35.1 50.7-34.52 51.35-33.95 51.35-32.9L51.35-32.9 51.35-5.7Q51.35-2.05 52-0.35L52-0.35Q50.95 0.55 49.65 0.55L49.65 0.55ZM62.2 0.55Q61.15 0.55 60.4-0.05L60.4-0.05Q61-1.85 61-5.7L61-5.7 60.95-28.6Q60.95-32.6 60.6-34.5L60.6-34.5Q61.15-35 62.5-35L62.5-35Q63.5-35 63.7-34.75L63.7-34.75Q79.09-12.6 83.2-5.55L83.2-5.55 82.34-30.45Q82.25-32.15 82.59-33.35 82.95-34.55 83.7-34.9L83.7-34.9Q83.9-34.95 84.4-34.95L84.4-34.95Q85.05-34.95 85.5-34.75L85.5-34.75Q85.45-34.2 85.55-32.75L85.55-32.75 85.59-31.15 85.59-5.65Q85.59-1.8 85.84-0.05L85.84-0.05Q85.65 0.2 85.09 0.35 84.55 0.5 84 0.5L84 0.5Q83.5 0.5 83 0.3L83 0.3Q78.09-5.65 72.77-13.68 67.45-21.7 63.5-28.4L63.5-28.4 64.25-1.9Q64.3-0.8 63.67-0.13 63.05 0.55 62.2 0.55L62.2 0.55ZM97.39 0Q96.29 0 95.69-0.6 95.09-1.2 95.09-2.2L95.09-2.2 94.99-28.85Q94.99-30.95 94.92-32.4 94.84-33.85 94.49-34.85L94.49-34.85Q98.29-35.2 104.89-35.2L104.89-35.2Q111.94-35.2 115.67-30.78 119.39-26.35 119.39-17.55L119.39-17.55Q119.39 0 105.09 0L105.09 0 97.39 0ZM99.04-1.85L104.89-1.85Q109.94-1.85 112.47-5.5 114.99-9.15 114.99-17.3L114.99-17.3Q114.99-25.5 112.44-29.4 109.89-33.3 104.89-33.3L104.89-33.3 98.99-33.3 99.04-1.85ZM162.54-5.7Q162.54-2.05 163.19-0.35L163.19-0.35Q162.14 0.55 160.84 0.55L160.84 0.55Q159.84 0.55 159.19-0.05 158.54-0.65 158.54-1.65L158.54-1.65 158.49-17.1 142.19-17.1 142.19-5.7Q142.19-2.05 142.84-0.35L142.84-0.35Q141.79 0.55 140.49 0.55L140.49 0.55Q139.49 0.55 138.84-0.05 138.19-0.65 138.19-1.65L138.19-1.65 138.14-28.85Q138.14-32.3 137.49-34.2L137.49-34.2Q138.54-35.1 139.84-35.1L139.84-35.1Q140.89-35.1 141.54-34.52 142.19-33.95 142.19-32.9L142.19-32.9 142.19-19.5 158.49-19.5 158.49-28.85Q158.49-32.3 157.84-34.2L157.84-34.2Q158.89-35.1 160.19-35.1L160.19-35.1Q161.24-35.1 161.89-34.52 162.54-33.95 162.54-32.9L162.54-32.9 162.54-5.7ZM174.49 0.55Q173.49 0.55 172.84-0.05 172.19-0.65 172.19-1.65L172.19-1.65 172.14-28.85Q172.14-32.3 171.49-34.2L171.49-34.2Q172.53-35.1 173.84-35.1L173.84-35.1Q174.89-35.1 175.53-34.52 176.19-33.95 176.19-32.9L176.19-32.9 176.19-5.7Q176.19-2.05 176.84-0.35L176.84-0.35Q175.78 0.55 174.49 0.55L174.49 0.55ZM206.48-35.3Q208.93-35.3 208.83-33.5L208.83-33.5Q208.83-32.75 208.38-31.2L208.38-31.2 197.98-0.1Q196.63 0.55 195.28 0.55L195.28 0.55Q193.03 0.55 192.58-0.75L192.58-0.75 182.63-32.05Q182.28-33.45 181.43-34.35L181.43-34.35Q182.38-35.3 183.93-35.3L183.93-35.3Q184.98-35.3 185.63-34.9 186.28-34.5 186.48-33.7L186.48-33.7 195.73-2.5 204.38-32.15Q204.68-33.05 204.68-33.75L204.68-33.75Q204.68-34.55 204.38-34.9L204.38-34.9Q205.33-35.3 206.48-35.3L206.48-35.3ZM233.18-3.6Q233.58-3.4 233.81-2.83 234.03-2.25 234.03-1.6L234.03-1.6Q234.03-0.9 233.78-0.45 233.53 0 233.03 0L233.03 0 217.13 0Q216.08 0 215.46-0.6 214.83-1.2 214.83-2.25L214.83-2.25 214.78-28.45Q214.78-31.7 214.13-33.6L214.13-33.6Q214.83-34.2 215.56-34.43 216.28-34.65 217.58-34.65L217.58-34.65 232.68-34.65Q233.03-34.65 233.23-34.33 233.43-34 233.43-33.5L233.43-33.5Q233.43-32.8 233.11-32.05 232.78-31.3 232.28-31.1L232.28-31.1Q225.13-32.35 218.78-32.4L218.78-32.4 218.78-19.4 231.08-19.4Q231.23-18.8 231.23-18.2L231.23-18.2Q231.23-17.6 231.08-17L231.08-17 218.83-17 218.83-2.2Q225.08-2.25 233.18-3.6L233.18-3.6Z" opacity="1" transform="matrix(1,0,0,1,0,0)" fill="#ffffff" class="wordmark-text-0" data-fill-palette-color="primary" id="text-0"></path></svg></g></svg></g></svg></g></svg></g><g><svg viewBox="0 0 161.8302119074791 161.6796526829268" height="161.6796526829268" width="161.8302119074791"><g><svg xmlns="http://www.w3.org/2000/svg" xmlns:xlink="http://www.w3.org/1999/xlink" version="1.1" x="0" y="0" viewBox="5.047 5.669025403784438 89.73400000000001 89.6505157031142" enable-background="new 0 0 100 100" xml:space="preserve" height="161.6796526829268" width="161.8302119074791" class="icon-icon-0" data-fill-palette-color="accent" id="icon-0"><g fill="#c8c8c8" data-fill-palette-color="accent"><path d="M94.281 17.854L73.418 5.803A1 1 0 0 0 72.418 5.803L51.549 17.853A1 1 0 0 0 51.049 18.719V42.815C51.049 43.172 51.238 43.503 51.549 43.681L72.418 55.73A0.99 0.99 0 0 0 73.418 55.73L94.281 43.68A1 1 0 0 0 94.781 42.814V18.719A1 1 0 0 0 94.281 17.854M92.781 42.238L72.918 53.71 53.049 42.238V19.296L72.918 7.823 92.781 19.296zM48.777 42.815V18.719A1 1 0 0 0 48.277 17.853L27.414 5.803A1 1 0 0 0 26.414 5.803L5.547 17.853A1 1 0 0 0 5.047 18.719V42.815C5.047 43.172 5.236 43.503 5.547 43.681L26.414 55.73A0.99 0.99 0 0 0 27.414 55.73L48.277 43.68A1 1 0 0 0 48.777 42.815M46.777 37.228L22.35 51.075 18.588 48.903 46.777 32.986zM46.777 32.125L17.834 48.467 14.121 46.323 46.777 27.786zM13.367 45.888L9.601 43.713 46.777 22.497V26.924zM7.047 28.786V24.407L31.563 10.51 35.331 12.686zM36.082 13.119L39.965 15.362 7.047 33.838V29.649zM7.047 34.699L40.721 15.798 44.354 17.897 7.047 39.013zM26.914 7.823L30.81 10.073 7.047 23.544V19.296zM7.047 39.874L45.108 18.332 46.778 19.297V21.633L8.85 43.279 7.047 42.238zM26.914 53.71L23.103 51.51 46.777 38.09V42.238zM71.203 57.307L50.346 45.259A1 1 0 0 0 49.346 45.259L28.477 57.307C28.168 57.487 27.977 57.817 27.977 58.174V82.27C27.977 82.627 28.168 82.958 28.477 83.135L49.346 95.184A0.99 0.99 0 0 0 50.346 95.184L71.203 83.135A1 1 0 0 0 71.703 82.27V58.174A1 1 0 0 0 71.203 57.307M69.703 81.691L49.846 93.164 29.977 81.691V58.75L49.846 47.28 69.703 58.75zM27.732 54.865" fill="#c8c8c8" data-fill-palette-color="accent"></path></g></svg></g></svg></g></svg></g><defs></defs></svg><rect width="395.5199999999999" height="111.81016463442411" fill="none" stroke="none" visibility="hidden"></rect></g></svg></g></svg>